<svg width="318" height="48" viewBox="0 0 318 48" fill="none" xmlns="http://www.w3.org/2000/svg">
<path d="M16.52 2.92C20.808 2.92 24.504 4.28 27.608 7L23.624 11.176C22.44 10.28 21.336 9.64 20.312 9.256C19.32 8.84 18.168 8.632 16.856 8.632C14.392 8.632 12.424 9.608 10.952 11.56C9.48 13.48 8.744 16.408 8.744 20.344C8.744 24.6 9.304 27.624 10.424 29.416C11.544 31.176 13.288 32.056 15.656 32.056C17.32 32.056 18.824 31.688 20.168 30.952V23.416H15.848L15.08 17.848H27.8V34.312C26.072 35.432 24.168 36.296 22.088 36.904C20.008 37.512 17.928 37.816 15.848 37.816C10.792 37.816 6.984 36.344 4.424 33.4C1.864 30.424 0.584 26.072 0.584 20.344C0.584 16.696 1.272 13.56 2.648 10.936C4.056 8.312 5.96 6.328 8.36 4.984C10.792 3.608 13.512 2.92 16.52 2.92ZM53.1695 29.608C53.1695 30.568 53.2975 31.272 53.5535 31.72C53.8415 32.168 54.2895 32.504 54.8975 32.728L53.3135 37.672C51.7455 37.544 50.4655 37.208 49.4735 36.664C48.4815 36.088 47.7135 35.192 47.1695 33.976C45.5055 36.536 42.9455 37.816 39.4895 37.816C36.9615 37.816 34.9455 37.08 33.4415 35.608C31.9375 34.136 31.1855 32.216 31.1855 29.848C31.1855 27.064 32.2095 24.936 34.2575 23.464C36.3055 21.992 39.2655 21.256 43.1375 21.256H45.7295V20.152C45.7295 18.648 45.4095 17.624 44.7695 17.08C44.1295 16.504 43.0095 16.216 41.4095 16.216C40.5775 16.216 39.5695 16.344 38.3855 16.6C37.2015 16.824 35.9855 17.144 34.7375 17.56L33.0095 12.568C34.6095 11.96 36.2415 11.496 37.9055 11.176C39.6015 10.856 41.1695 10.696 42.6095 10.696C46.2575 10.696 48.9295 11.448 50.6255 12.952C52.3215 14.456 53.1695 16.712 53.1695 19.72V29.608ZM41.6975 32.392C43.4255 32.392 44.7695 31.576 45.7295 29.944V25.432H43.8575C42.1295 25.432 40.8335 25.736 39.9695 26.344C39.1375 26.952 38.7215 27.896 38.7215 29.176C38.7215 30.2 38.9775 31 39.4895 31.576C40.0335 32.12 40.7695 32.392 41.6975 32.392ZM73.6584 10.696C76.6984 10.696 79.0344 11.896 80.6664 14.296C82.2984 16.664 83.1144 19.992 83.1144 24.28C83.1144 26.904 82.6984 29.24 81.8664 31.288C81.0664 33.336 79.8984 34.936 78.3624 36.088C76.8584 37.24 75.0664 37.816 72.9864 37.816C71.6104 37.816 70.3464 37.528 69.1944 36.952C68.0744 36.376 67.1144 35.576 66.3144 34.552L65.9304 37H59.2104V1.384L66.7944 0.567997V14.104C67.5624 13.048 68.5384 12.216 69.7224 11.608C70.9384 11 72.2504 10.696 73.6584 10.696ZM70.7784 32.296C73.7544 32.296 75.2424 29.624 75.2424 24.28C75.2424 21.24 74.8904 19.144 74.1864 17.992C73.4824 16.84 72.4584 16.264 71.1144 16.264C69.4184 16.264 67.9784 17.256 66.7944 19.24V29.848C67.2744 30.616 67.8504 31.224 68.5224 31.672C69.2264 32.088 69.9784 32.296 70.7784 32.296ZM101.54 37.048C100.516 40.344 98.836 42.872 96.5 44.632C94.196 46.424 91.092 47.432 87.188 47.656L86.372 42.328C88.804 42.008 90.596 41.464 91.748 40.696C92.932 39.928 93.876 38.696 94.58 37H91.988L84.212 11.512H92.276L96.836 32.152L101.828 11.512H109.652L101.54 37.048ZM156.878 37H149.15L148.574 23.992C148.414 20.888 148.334 18.12 148.334 15.688C148.334 13.832 148.382 12.072 148.478 10.408L143.342 33.496H135.902L130.43 10.408C130.622 13.192 130.718 15.816 130.718 18.28C130.718 20.136 130.67 22.072 130.574 24.088L129.998 37H122.318L124.814 3.736H134.75L139.742 26.296L144.398 3.736H154.382L156.878 37ZM181.701 29.608C181.701 30.568 181.829 31.272 182.085 31.72C182.373 32.168 182.821 32.504 183.429 32.728L181.845 37.672C180.277 37.544 178.997 37.208 178.005 36.664C177.013 36.088 176.245 35.192 175.701 33.976C174.037 36.536 171.477 37.816 168.021 37.816C165.493 37.816 163.477 37.08 161.973 35.608C160.469 34.136 159.717 32.216 159.717 29.848C159.717 27.064 160.741 24.936 162.789 23.464C164.837 21.992 167.797 21.256 171.669 21.256H174.261V20.152C174.261 18.648 173.941 17.624 173.301 17.08C172.661 16.504 171.541 16.216 169.941 16.216C169.109 16.216 168.101 16.344 166.917 16.6C165.733 16.824 164.517 17.144 163.269 17.56L161.541 12.568C163.141 11.96 164.773 11.496 166.437 11.176C168.133 10.856 169.701 10.696 171.141 10.696C174.789 10.696 177.461 11.448 179.157 12.952C180.853 14.456 181.701 16.712 181.701 19.72V29.608ZM170.229 32.392C171.957 32.392 173.301 31.576 174.261 29.944V25.432H172.389C170.661 25.432 169.365 25.736 168.501 26.344C167.669 26.952 167.253 27.896 167.253 29.176C167.253 30.2 167.509 31 168.021 31.576C168.565 32.12 169.301 32.392 170.229 32.392ZM198.782 10.696C200.542 10.696 202.126 10.952 203.534 11.464C204.942 11.976 206.27 12.76 207.518 13.816L204.254 18.328C202.654 17.112 201.038 16.504 199.406 16.504C197.71 16.504 196.43 17.128 195.566 18.376C194.702 19.624 194.27 21.64 194.27 24.424C194.27 27.112 194.702 29.016 195.566 30.136C196.43 31.256 197.678 31.816 199.31 31.816C200.174 31.816 200.958 31.688 201.662 31.432C202.366 31.144 203.214 30.696 204.206 30.088L207.518 34.792C204.99 36.808 202.126 37.816 198.926 37.816C196.334 37.816 194.094 37.272 192.206 36.184C190.318 35.064 188.862 33.512 187.838 31.528C186.814 29.512 186.302 27.16 186.302 24.472C186.302 21.784 186.814 19.4 187.838 17.32C188.862 15.24 190.318 13.624 192.206 12.472C194.094 11.288 196.286 10.696 198.782 10.696ZM225.638 10.696C227.846 10.696 229.574 11.368 230.822 12.712C232.07 14.056 232.694 15.944 232.694 18.376V37H225.11V19.672C225.11 18.392 224.902 17.512 224.486 17.032C224.07 16.52 223.478 16.264 222.71 16.264C221.174 16.264 219.702 17.352 218.294 19.528V37H210.71V1.384L218.294 0.615999V14.248C219.35 13.064 220.47 12.184 221.654 11.608C222.838 11 224.166 10.696 225.638 10.696ZM258.67 29.608C258.67 30.568 258.798 31.272 259.054 31.72C259.342 32.168 259.79 32.504 260.398 32.728L258.814 37.672C257.246 37.544 255.966 37.208 254.974 36.664C253.982 36.088 253.214 35.192 252.67 33.976C251.006 36.536 248.446 37.816 244.99 37.816C242.462 37.816 240.446 37.08 238.942 35.608C237.438 34.136 236.686 32.216 236.686 29.848C236.686 27.064 237.71 24.936 239.758 23.464C241.806 21.992 244.766 21.256 248.638 21.256H251.23V20.152C251.23 18.648 250.91 17.624 250.27 17.08C249.63 16.504 248.51 16.216 246.91 16.216C246.078 16.216 245.07 16.344 243.886 16.6C242.702 16.824 241.486 17.144 240.238 17.56L238.51 12.568C240.11 11.96 241.742 11.496 243.406 11.176C245.102 10.856 246.67 10.696 248.109 10.696C251.758 10.696 254.43 11.448 256.126 12.952C257.822 14.456 258.67 16.712 258.67 19.72V29.608ZM247.198 32.392C248.926 32.392 250.27 31.576 251.23 29.944V25.432H249.358C247.63 25.432 246.334 25.736 245.47 26.344C244.638 26.952 244.222 27.896 244.222 29.176C244.222 30.2 244.478 31 244.99 31.576C245.534 32.12 246.27 32.392 247.198 32.392ZM287.558 1.384V37H280.838L280.454 34.024C278.662 36.552 276.246 37.816 273.206 37.816C270.038 37.816 267.622 36.6 265.958 34.168C264.326 31.736 263.51 28.408 263.51 24.184C263.51 21.592 263.942 19.272 264.806 17.224C265.67 15.176 266.886 13.576 268.454 12.424C270.054 11.272 271.878 10.696 273.926 10.696C276.358 10.696 278.374 11.496 279.974 13.096V0.567997L287.558 1.384ZM275.558 32.248C277.318 32.248 278.79 31.288 279.974 29.368V18.376C279.366 17.64 278.742 17.096 278.102 16.744C277.494 16.392 276.79 16.216 275.99 16.216C274.582 16.216 273.462 16.872 272.63 18.184C271.798 19.496 271.382 21.512 271.382 24.232C271.382 27.208 271.734 29.288 272.438 30.472C273.174 31.656 274.214 32.248 275.558 32.248ZM304.532 10.696C308.436 10.696 311.492 11.896 313.7 14.296C315.908 16.664 317.012 19.992 317.012 24.28C317.012 27 316.5 29.384 315.476 31.432C314.484 33.448 313.044 35.016 311.156 36.136C309.3 37.256 307.092 37.816 304.532 37.816C300.66 37.816 297.604 36.632 295.364 34.264C293.156 31.864 292.052 28.52 292.052 24.232C292.052 21.512 292.548 19.144 293.54 17.128C294.564 15.08 296.004 13.496 297.86 12.376C299.748 11.256 301.972 10.696 304.532 10.696ZM304.532 16.264C302.996 16.264 301.844 16.92 301.076 18.232C300.308 19.512 299.924 21.512 299.924 24.232C299.924 27.016 300.292 29.048 301.028 30.328C301.796 31.608 302.964 32.248 304.532 32.248C306.068 32.248 307.22 31.608 307.988 30.328C308.756 29.016 309.14 27 309.14 24.28C309.14 21.496 308.756 19.464 307.988 18.184C307.252 16.904 306.1 16.264 304.532 16.264Z" fill="url(#paint0_linear_33_224)"/>
<defs>
<linearGradient id="paint0_linear_33_224" x1="159" y1="-9" x2="159" y2="51" gradientUnits="userSpaceOnUse">
<stop offset="0.226562" stop-color="#4B0225"/>
<stop offset="1" stop-color="#EC2083"/>
</linearGradient>
</defs>
</svg>
